# xmcd
#
# Track frame offsets:
# 150
# 11953
# 20736
# 29654
# 36010
# 48531
# 57329
# 65918
# 80178
# 90087
# 100219
# 112762
#
# Disc length: 1634 seconds
#
# Revision: 0
# Processed by: cddbd v1.5.2PL0 Copyright (c) Steve Scherf et al.
# Submitted via: Audion 3.0.2 (http://www.panic.com/audion/)
#
DISCID=a006600c
DTITLE=Holger Bogen - String a Billy
DYEAR=1900
DGENRE=
TTITLE0=String 'a' Billy
TTITLE1=Choo Choo Shuffle
TTITLE2=Rock-a-dile Done D
TTITLE3=Jumping Strings
TTITLE4=Bubble Bath
TTITLE5=Swingin' down the Alamo
TTITLE6=Wild Horses
TTITLE7=Right or wrong
TTITLE8=Steel Guitar Rag
TTITLE9=Pipeline
TTITLE10=Hillbilly Finger Food
TTITLE11=String Tanga
EXTD=
EXTT0=
EXTT1=
EXTT2=
EXTT3=
EXTT4=
EXTT5=
EXTT6=
EXTT7=
EXTT8=
EXTT9=
EXTT10=
EXTT11=
PLAYORDER=
